<?xml version="1.0" encoding="utf-8"?>
<!-- Generator: Adobe Illustrator 25.2.1, SVG Export Plug-In . SVG Version: 6.00 Build 0)  -->
<svg version="1.1" id="Слой_1" xmlns="http://www.w3.org/2000/svg" xmlns:xlink="http://www.w3.org/1999/xlink" x="0px" y="0px"
	 viewBox="0 0 389 433.6" style="enable-background:new 0 0 389 433.6;" xml:space="preserve">
<style type="text/css">
	.st0{clip-path:url(#SVGID_2_);}
	.st1{clip-path:url(#SVGID_4_);}
	.st2{enable-background:new    ;}
	.st3{fill:#C6C6C6;}
</style>
<g>
	<g>
		<defs>
			<rect id="SVGID_1_" x="-703.3" y="-150.6" width="1487.9" height="739.4"/>
		</defs>
		<clipPath id="SVGID_2_">
			<use xlink:href="#SVGID_1_"  style="overflow:visible;"/>
		</clipPath>
		<g class="st0">
			<g>
				<g>
					<defs>
						<rect id="SVGID_3_" x="-134.1" y="-149.6" width="1504.8" height="739.4"/>
					</defs>
					<clipPath id="SVGID_4_">
						<use xlink:href="#SVGID_3_"  style="overflow:visible;"/>
					</clipPath>
					<g class="st1">
						<g class="st2">
							<path class="st3" d="M192.5,461.8C65.4,461.8,4.4,387.3,4.4,229.6c0-155,61-232.2,188.1-232.2
								c126.5,0,188.1,77.2,188.1,232.2C380.6,387.3,319,461.8,192.5,461.8z M269.1,197.2c0-70.7-16.9-113.5-76.5-113.5
								c-60.3,0-76.5,40.2-76.5,113.5v64.2c0,75.9,16.2,113.5,76.5,114.2c59.7,0,76.5-38.3,76.5-114.2V197.2z"/>
						</g>
					</g>
				</g>
			</g>
		</g>
	</g>
</g>
</svg>
