<?xml version="1.0" encoding="utf-8"?>
<!-- Generator: Adobe Illustrator 25.2.1, SVG Export Plug-In . SVG Version: 6.00 Build 0)  -->
<svg version="1.1" id="Слой_1" xmlns="http://www.w3.org/2000/svg" xmlns:xlink="http://www.w3.org/1999/xlink" x="0px" y="0px"
	 viewBox="0 0 389 447.6" style="enable-background:new 0 0 389 447.6;" xml:space="preserve">
<style type="text/css">
	.st0{clip-path:url(#SVGID_2_);}
	.st1{enable-background:new    ;}
	.st2{fill:#E30613;}
</style>
<g>
	<g>
		<defs>
			<rect id="SVGID_1_" x="-134.3" y="-150.6" width="1504.8" height="739.4"/>
		</defs>
		<clipPath id="SVGID_2_">
			<use xlink:href="#SVGID_1_"  style="overflow:visible;"/>
		</clipPath>
		<g class="st0">
			<g class="st1">
				<path class="st2" d="M192.3,456.8C65.2,456.8,4.2,382.2,4.2,224.6c0-155,61-232.2,188.1-232.2c126.5,0,188.1,77.2,188.1,232.2
					C380.4,382.2,318.8,456.8,192.3,456.8z M268.8,192.2c0-70.7-16.8-113.5-76.5-113.5c-60.3,0-76.5,40.2-76.5,113.5v64.2
					c0,75.9,16.2,113.5,76.5,114.2c59.7,0,76.5-38.3,76.5-114.2V192.2z"/>
			</g>
		</g>
	</g>
</g>
</svg>
