<svg id="Слой_1" data-name="Слой 1" xmlns="http://www.w3.org/2000/svg" xmlns:xlink="http://www.w3.org/1999/xlink" viewBox="0 0 78 19"><defs><style>.cls-1{fill:none;}.cls-2{clip-path:url(#clip-path);}.cls-3{clip-path:url(#clip-path-2);}.cls-4,.cls-6{font-size:648.59px;font-family:MTSSans-Black, MTS Sans;font-weight:800;}.cls-4{fill:#c6c6c6;}.cls-5{clip-path:url(#clip-path-3);}.cls-6,.cls-8{fill:#e30613;}.cls-7{clip-path:url(#clip-path-4);}</style><clipPath id="clip-path"><rect class="cls-1" x="-721.3" y="-89.29" width="1487.91" height="739.44"/></clipPath><clipPath id="clip-path-2"><rect class="cls-1" x="-152.07" y="-88.29" width="1504.78" height="739.44"/></clipPath><clipPath id="clip-path-3"><rect class="cls-1" x="-170.27" y="-702.34" width="1504.78" height="739.44"/></clipPath><clipPath id="clip-path-4"><rect class="cls-1" x="0.68" y="-0.02" width="76.86" height="19.13"/></clipPath></defs><g class="cls-2"><g class="cls-3"><text class="cls-4" transform="translate(-40.81 510.71)">0</text></g></g><g class="cls-5"><text class="cls-6" transform="translate(-59.02 -103.34)">0</text></g><g class="cls-7"><path class="cls-8" d="M7.52,0C6.09,0,4.4,1.35,3,3.66a15.93,15.93,0,0,0-2.32,7.9c0,3.76,2.11,7.55,6.84,7.55s6.83-3.79,6.83-7.55A15.93,15.93,0,0,0,12,3.66C10.63,1.35,8.94,0,7.52,0"/></g><polygon class="cls-8" points="44.41 5.62 49.19 5.62 49.19 18.09 54.32 18.09 54.32 5.62 59.1 5.62 59.1 1 44.41 1 44.41 5.62"/><g class="cls-7"><path class="cls-8" d="M70,5.62h7.52V1H70C63.12,1,59.44,4.44,59.44,9.54S63.12,18.08,70,18.08h7.52V13.47H70c-3.2,0-5.3-1.14-5.3-3.93s2.1-3.92,5.3-3.92"/></g><polygon class="cls-8" points="33.99 1 31.25 11.2 28.52 1 19.47 1 19.47 18.08 24.59 18.08 24.59 4.19 28.32 18.08 34.19 18.08 37.92 4.18 37.92 18.08 43.04 18.08 43.04 1 33.99 1"/></svg>